<svg width="613" height="433" viewBox="0 0 613 433" fill="none" xmlns="http://www.w3.org/2000/svg">
<path d="M2 174.855C16.8856 331.82 193.917 361.225 239.599 300.855C285.28 240.484 573.122 108.992 611 139.537" stroke="#FBF3D5" stroke-width="4"/>
<path d="M2 210.855C16.8856 367.82 193.917 397.225 239.599 336.855C285.28 276.484 573.122 144.992 611 175.537" stroke="#FBF3D5" stroke-width="4"/>
<path d="M2 239.855C16.8856 396.82 193.917 426.225 239.599 365.855C285.28 305.484 573.122 173.992 611 204.537" stroke="#FBF3D5" stroke-width="4"/>
<path d="M2 275.855C16.8856 432.82 193.917 462.225 239.599 401.855C285.28 341.484 573.122 209.992 611 240.537" stroke="#FBF3D5" stroke-width="4"/>
<path d="M2 41.8552C16.8856 198.82 193.917 228.225 239.599 167.855C285.28 107.484 573.122 -24.0084 611 6.53675" stroke="#FBF3D5" stroke-width="4"/>
<path d="M2 77.8552C16.8856 234.82 193.917 264.225 239.599 203.855C285.28 143.484 573.122 11.9916 611 42.5368" stroke="#FBF3D5" stroke-width="4"/>
<path d="M2 106.855C16.8856 263.82 193.917 293.225 239.599 232.855C285.28 172.484 573.122 40.9916 611 71.5368" stroke="#FBF3D5" stroke-width="4"/>
<path d="M2 142.855C16.8856 299.82 193.917 329.225 239.599 268.855C285.28 208.484 573.122 76.9916 611 107.537" stroke="#FBF3D5" stroke-width="4"/>
</svg>
